<svg preserveAspectRatio="none" width="100%" height="100%" overflow="visible" style="display: block;" viewBox="0 0 13.5 13.5" fill="none" xmlns="http://www.w3.org/2000/svg">
<g id="arrow_circle_right">
<mask id="mask0_8008_1962" style="mask-type:alpha" maskUnits="userSpaceOnUse" x="0" y="0" width="14" height="14">
<rect id="Bounding box" width="13.5" height="13.5" fill="var(--fill-0, #D9D9D9)"/>
</mask>
<g mask="url(#mask0_8008_1962)">
<path id="arrow_circle_right_2" d="M6.75098 12.0937C6.01186 12.0937 5.31712 11.9535 4.66678 11.673C4.01644 11.3925 3.45075 11.0118 2.96972 10.531C2.48869 10.0501 2.10783 9.48469 1.82714 8.83463C1.54655 8.18456 1.40625 7.49002 1.40625 6.75098C1.40625 6.01186 1.5465 5.31712 1.827 4.66678C2.1075 4.01644 2.48817 3.45075 2.96902 2.96972C3.44986 2.48869 4.01531 2.10783 4.66537 1.82714C5.31544 1.54655 6.00998 1.40625 6.74902 1.40625C7.48814 1.40625 8.18288 1.5465 8.83322 1.827C9.48356 2.1075 10.0493 2.48817 10.5303 2.96902C11.0113 3.44986 11.3922 4.01531 11.6729 4.66537C11.9535 5.31544 12.0937 6.00998 12.0937 6.74902C12.0937 7.48814 11.9535 8.18288 11.673 8.83322C11.3925 9.48356 11.0118 10.0493 10.531 10.5303C10.0501 11.0113 9.48469 11.3922 8.83463 11.6729C8.18456 11.9535 7.49002 12.0937 6.75098 12.0937ZM7.20323 7.17187L6.45356 7.92155C6.37575 7.99945 6.33773 8.09644 6.33952 8.2125C6.3413 8.32856 6.38114 8.42555 6.45905 8.50345C6.53695 8.58136 6.63516 8.62031 6.75366 8.62031C6.87216 8.62031 6.96975 8.58136 7.04644 8.50345L8.44397 7.10592C8.54569 7.0042 8.59655 6.88556 8.59655 6.75C8.59655 6.61444 8.54569 6.4958 8.44397 6.39408L7.04095 4.99106C6.96305 4.91325 6.86606 4.87434 6.75 4.87434C6.63394 4.87434 6.53695 4.91325 6.45905 4.99106C6.38114 5.06897 6.34219 5.16717 6.34219 5.28567C6.34219 5.40417 6.38114 5.50177 6.45905 5.57845L7.20323 6.32812H5.0625C4.94297 6.32812 4.8428 6.36858 4.76198 6.44948C4.68108 6.53039 4.64062 6.63061 4.64062 6.75014C4.64062 6.86977 4.68108 6.96994 4.76198 7.05066C4.8428 7.13147 4.94297 7.17187 5.0625 7.17187H7.20323Z" fill="var(--fill-0, white)"/>
</g>
</g>
</svg>
