<svg preserveAspectRatio="none" width="100%" height="100%" overflow="visible" style="display: block;" viewBox="0 0 96 96" fill="none" xmlns="http://www.w3.org/2000/svg">
<g id="Group 2574">
<path id="Star 1" d="M34.7451 10.1913C42.5602 4.18248 53.4398 4.18248 61.2549 10.1913V10.1913C63.6387 12.0241 66.3766 13.3426 69.2957 14.0635V14.0635C78.8663 16.4272 85.6496 24.9332 85.8244 34.7898V34.7898C85.8777 37.7962 86.5539 40.7588 87.8103 43.4906V43.4906C91.9294 52.4469 89.5085 63.0537 81.9113 69.3358V69.3358C79.594 71.252 77.6993 73.6278 76.3469 76.3134V76.3134C71.9128 85.118 62.1106 89.8385 52.4623 87.8156V87.8156C49.5194 87.1986 46.4806 87.1986 43.5377 87.8156V87.8156C33.8894 89.8385 24.0872 85.118 19.6531 76.3134V76.3134C18.3007 73.6278 16.406 71.252 14.0887 69.3358V69.3358C6.49154 63.0537 4.07061 52.4469 8.18972 43.4906V43.4906C9.44612 40.7588 10.1223 37.7962 10.1756 34.7898V34.7898C10.3504 24.9332 17.1337 16.4272 26.7043 14.0635V14.0635C29.6234 13.3426 32.3613 12.0241 34.7451 10.1913V10.1913Z" fill="var(--fill-0, #1FE446)"/>
<g id="check">
<mask id="mask0_8008_1847" style="mask-type:alpha" maskUnits="userSpaceOnUse" x="24" y="24" width="48" height="48">
<rect id="Bounding box" x="24" y="24" width="48" height="48" fill="var(--fill-0, #D9D9D9)"/>
</mask>
<g mask="url(#mask0_8008_1847)">
<path id="check_2" d="M43.0999 54.3L60.0499 37.35C60.4499 36.95 60.9165 36.75 61.4499 36.75C61.9832 36.75 62.4499 36.95 62.8499 37.35C63.2499 37.75 63.4499 38.225 63.4499 38.775C63.4499 39.325 63.2499 39.8 62.8499 40.2L44.4999 58.6C44.0999 59 43.6332 59.2 43.0999 59.2C42.5665 59.2 42.0999 59 41.6999 58.6L33.0999 50C32.6999 49.6 32.5082 49.125 32.5249 48.575C32.5415 48.025 32.7499 47.55 33.1499 47.15C33.5499 46.75 34.0249 46.55 34.5749 46.55C35.1249 46.55 35.5999 46.75 35.9999 47.15L43.0999 54.3Z" fill="var(--fill-0, white)"/>
</g>
</g>
</g>
</svg>
