<svg preserveAspectRatio="none" width="100%" height="100%" overflow="visible" style="display: block;" viewBox="0 0 18 18" fill="none" xmlns="http://www.w3.org/2000/svg">
<g id="check_circle">
<mask id="mask0_8008_2248" style="mask-type:alpha" maskUnits="userSpaceOnUse" x="0" y="0" width="18" height="18">
<rect id="Bounding box" width="18" height="18" fill="var(--fill-0, #D9D9D9)"/>
</mask>
<g mask="url(#mask0_8008_2248)">
<path id="check_circle_2" d="M7.93574 10.6042L6.19349 8.86174C6.08961 8.75799 5.95905 8.70486 5.8018 8.70236C5.64467 8.69999 5.51174 8.75311 5.40299 8.86174C5.29436 8.97049 5.24005 9.10224 5.24005 9.25699C5.24005 9.41174 5.29436 9.54349 5.40299 9.65224L7.46117 11.7104C7.5968 11.8459 7.75499 11.9137 7.93574 11.9137C8.11649 11.9137 8.27467 11.8459 8.4103 11.7104L12.5829 7.5378C12.6867 7.43392 12.7398 7.30336 12.7423 7.14611C12.7447 6.98899 12.6915 6.85605 12.5829 6.7473C12.4742 6.63867 12.3424 6.58436 12.1877 6.58436C12.0329 6.58436 11.9012 6.63867 11.7924 6.7473L7.93574 10.6042ZM9.00149 16.1195C8.01599 16.1195 7.08967 15.9325 6.22255 15.5585C5.35542 15.1845 4.60117 14.6769 3.9598 14.0358C3.31842 13.3947 2.81061 12.6407 2.43636 11.774C2.06223 10.9072 1.87517 9.98117 1.87517 8.9958C1.87517 8.0103 2.06217 7.08399 2.43617 6.21686C2.81017 5.34974 3.31774 4.59549 3.95886 3.95411C4.59999 3.31274 5.35392 2.80492 6.22067 2.43067C7.08742 2.05655 8.01349 1.86949 8.99886 1.86949C9.98436 1.86949 10.9107 2.05648 11.7778 2.43049C12.6449 2.80449 13.3992 3.31205 14.0405 3.95317C14.6819 4.5943 15.1897 5.34824 15.564 6.21499C15.9381 7.08174 16.1252 8.0078 16.1252 8.99317C16.1252 9.97867 15.9382 10.905 15.5642 11.7721C15.1902 12.6392 14.6826 13.3935 14.0415 14.0349C13.4004 14.6762 12.6464 15.184 11.7797 15.5583C10.9129 15.9324 9.98686 16.1195 9.00149 16.1195Z" fill="var(--fill-0, #0F172A)"/>
</g>
</g>
</svg>
