<svg preserveAspectRatio="none" width="100%" height="100%" overflow="visible" style="display: block;" viewBox="0 0 18 18" fill="none" xmlns="http://www.w3.org/2000/svg">
<g id="circle_circle">
<mask id="mask0_8008_2134" style="mask-type:alpha" maskUnits="userSpaceOnUse" x="0" y="0" width="18" height="18">
<rect id="Bounding box" width="18" height="18" fill="var(--fill-0, #D9D9D9)"/>
</mask>
<g mask="url(#mask0_8008_2134)">
<path id="circle_circle_2" d="M6.22294 15.5668C5.35606 15.1947 4.60075 14.6868 3.957 14.043C3.31325 13.3993 2.80531 12.6439 2.43319 11.7771C2.06106 10.9103 1.875 9.98462 1.875 9C1.875 8.01537 2.06106 7.08969 2.43319 6.22294C2.80531 5.35606 3.31325 4.60194 3.957 3.96056C4.60075 3.31919 5.35606 2.81125 6.22294 2.43675C7.08969 2.06225 8.01537 1.875 9 1.875C9.98462 1.875 10.9103 2.06225 11.7771 2.43675C12.6439 2.81125 13.3981 3.31919 14.0394 3.96056C14.6808 4.60194 15.1887 5.35606 15.5632 6.22294C15.9377 7.08969 16.125 8.01537 16.125 9C16.125 9.98462 15.9377 10.9103 15.5632 11.7771C15.1887 12.6439 14.6808 13.3993 14.0394 14.043C13.3981 14.6868 12.6439 15.1947 11.7771 15.5668C10.9103 15.9389 9.98462 16.125 9 16.125C8.01537 16.125 7.08969 15.9389 6.22294 15.5668ZM11.4621 11.4656C12.1379 10.7873 12.4759 9.96537 12.4759 9C12.4759 8.03462 12.1379 7.21394 11.4621 6.53794C10.7861 5.86206 9.96537 5.52412 9 5.52412C8.03462 5.52412 7.21275 5.86206 6.53437 6.53794C5.856 7.21394 5.51681 8.03462 5.51681 9C5.51681 9.96537 5.856 10.7873 6.53437 11.4656C7.21275 12.144 8.03462 12.4832 9 12.4832C9.96537 12.4832 10.7861 12.144 11.4621 11.4656Z" fill="var(--fill-0, #64748B)"/>
</g>
</g>
</svg>
