<svg preserveAspectRatio="none" width="100%" height="100%" overflow="visible" style="display: block;" viewBox="0 0 61.8181 24" fill="none" xmlns="http://www.w3.org/2000/svg">
<g id="Group 2437">
<g id="dashx">
<path d="M5.14067 20.4819C4.20074 20.4819 3.34035 20.2472 2.55949 19.7779C1.77863 19.2943 1.15683 18.6259 0.694099 17.7726C0.231366 16.905 0 15.9237 0 14.8286C0 13.7335 0.231366 12.7592 0.694099 11.9059C1.15683 11.0383 1.77863 10.3699 2.55949 9.90056C3.34035 9.41701 4.20074 9.17523 5.14067 9.17523C5.82031 9.17523 6.42042 9.29612 6.94099 9.53789C7.45914 9.77204 7.83489 10.0262 8.06823 10.3004C8.08257 10.3172 8.10343 10.3272 8.12555 10.3272C8.16614 10.3272 8.19904 10.2943 8.19904 10.2537V6.08523C8.19904 5.67101 8.53483 5.33523 8.94904 5.33523H10.7243C11.1385 5.33523 11.4743 5.67101 11.4743 6.08523V19.5186C11.4743 19.9328 11.1385 20.2686 10.7243 20.2686H9.19879C8.8821 20.2686 8.6092 20.0456 8.54609 19.7352L8.45118 19.2685C8.4433 19.2297 8.40924 19.2019 8.36971 19.2019C8.34413 19.2019 8.32005 19.2137 8.30395 19.2336C8.01579 19.5892 7.60485 19.8844 7.07113 20.1192C6.5361 20.361 5.89261 20.4819 5.14067 20.4819ZM5.74801 17.5166C6.45657 17.5166 7.04221 17.2748 7.50494 16.7912C7.96768 16.2935 8.19904 15.6392 8.19904 14.8286C8.19904 14.0179 7.96768 13.3708 7.50494 12.8872C7.04221 12.4037 6.45657 12.1619 5.74801 12.1619C5.03945 12.1619 4.4538 12.4037 3.99107 12.8872C3.52834 13.3708 3.29697 14.0179 3.29697 14.8286C3.29697 15.6392 3.52834 16.2935 3.99107 16.7912C4.4538 17.2748 5.03945 17.5166 5.74801 17.5166Z" fill="var(--fill-0, white)"/>
<path d="M17.6975 20.4819C16.8732 20.4819 16.1502 20.3326 15.5284 20.0339C14.9211 19.7352 14.4511 19.337 14.1185 18.8392C13.8004 18.3272 13.6413 17.7583 13.6413 17.1326C13.6413 16.0517 14.0318 15.1841 14.8126 14.5299C15.5935 13.8757 16.7214 13.5486 18.1964 13.5486H20.4337C20.5398 13.5486 20.6257 13.4626 20.6257 13.3566C20.6257 12.8872 20.4667 12.5032 20.1485 12.2046C19.8449 11.8917 19.4472 11.7352 18.9555 11.7352C18.5073 11.7352 18.153 11.8348 17.8927 12.0339C17.7801 12.1139 17.6811 12.2005 17.5956 12.2937C17.3964 12.511 17.1393 12.6952 16.8446 12.6952H14.9648C14.5148 12.6952 14.1616 12.2962 14.3241 11.8766C14.4418 11.5725 14.6046 11.2765 14.8126 10.9886C15.2175 10.4481 15.767 10.0143 16.4611 9.68723C17.1697 9.34589 18.0012 9.17523 18.9555 9.17523C19.9533 9.17523 20.8209 9.36012 21.5584 9.7299C22.3104 10.0997 22.8888 10.6046 23.2937 11.2446C23.6986 11.8703 23.901 12.5743 23.901 13.3566V19.5186C23.901 19.9328 23.5652 20.2686 23.151 20.2686H21.5412C21.2592 20.2686 21.0146 20.074 20.9511 19.7992L20.8579 19.3962C20.849 19.3574 20.8144 19.3299 20.7746 19.3299C20.749 19.3299 20.7249 19.3414 20.7081 19.3608C20.4607 19.6472 20.0717 19.9071 19.5412 20.1406C19.0062 20.3681 18.3916 20.4819 17.6975 20.4819ZM18.4133 17.9859C19.1074 17.9859 19.6496 17.801 20.0401 17.4312C20.4305 17.0615 20.6257 16.5637 20.6257 15.9379C20.6257 15.7965 20.5111 15.6819 20.3697 15.6819H18.6302C18.0662 15.6819 17.6396 15.7886 17.3504 16.0019C17.0757 16.201 16.9383 16.4783 16.9383 16.8339C16.9383 17.1895 17.0612 17.4739 17.3071 17.6872C17.5673 17.8863 17.9361 17.9859 18.4133 17.9859Z" fill="var(--fill-0, white)"/>
<path d="M30.6788 20.4819C29.4786 20.4819 28.5025 20.2828 27.7506 19.8846C26.9986 19.4721 26.4564 18.9886 26.1238 18.4339C25.9619 18.1517 25.8412 17.8787 25.7617 17.6149C25.6422 17.2183 25.9824 16.8766 26.3966 16.8766H28.0851C28.4993 16.8766 28.8435 17.2469 29.1319 17.5442C29.1792 17.593 29.2321 17.6406 29.2906 17.6872C29.6087 17.9148 30.0715 18.0286 30.6788 18.0286C31.2717 18.0286 31.7055 17.9432 31.9802 17.7726C32.2694 17.5877 32.414 17.3672 32.414 17.1112C32.414 16.841 32.3201 16.6277 32.1321 16.4712C31.9441 16.3148 31.6115 16.201 31.1343 16.1299L29.4858 15.8739C26.9552 15.4899 25.69 14.409 25.69 12.6312C25.69 12.0055 25.8779 11.4295 26.2539 10.9032C26.6299 10.377 27.1866 9.95745 27.9241 9.64456C28.6616 9.33167 29.5437 9.17523 30.5703 9.17523C31.6115 9.17523 32.5008 9.36012 33.2383 9.7299C33.9758 10.0855 34.5325 10.5406 34.9085 11.0952C35.11 11.385 35.2576 11.6727 35.3511 11.9583C35.4799 12.352 35.1366 12.6952 34.7224 12.6952H33.0556C32.6414 12.6952 32.2856 12.3198 31.9685 12.0534C31.9258 12.0175 31.8791 11.9826 31.8284 11.9486C31.5247 11.7352 31.1054 11.6286 30.5703 11.6286C30.0498 11.6286 29.6449 11.7281 29.3557 11.9272C29.0809 12.1121 28.9436 12.3326 28.9436 12.5886C28.9436 13.001 29.3629 13.2712 30.2016 13.3992L31.9369 13.6552C34.4096 14.0108 35.6459 15.1486 35.6459 17.0686C35.6459 17.6943 35.458 18.2703 35.082 18.7966C34.7205 19.3086 34.1638 19.721 33.4118 20.0339C32.6743 20.3326 31.7633 20.4819 30.6788 20.4819Z" fill="var(--fill-0, white)"/>
<path d="M38.4484 20.2686C38.0342 20.2686 37.6984 19.9328 37.6984 19.5186V6.08523C37.6984 5.67101 38.0342 5.33523 38.4484 5.33523H40.2237C40.6379 5.33523 40.9737 5.67101 40.9737 6.08523V10.2767C40.9737 10.3164 41.0059 10.3486 41.0455 10.3486C41.0685 10.3486 41.0901 10.3375 41.104 10.3192C41.3235 10.0322 41.6849 9.77173 42.1884 9.53789C42.7089 9.29612 43.2946 9.17523 43.9453 9.17523C44.784 9.17523 45.5287 9.36723 46.1794 9.75123C46.8446 10.121 47.358 10.6543 47.7195 11.3512C48.0954 12.0339 48.2834 12.8303 48.2834 13.7406V19.5186C48.2834 19.9328 47.9476 20.2686 47.5334 20.2686H45.7581C45.3439 20.2686 45.0081 19.9328 45.0081 19.5186V14.2739C45.0081 13.6766 44.8202 13.193 44.4442 12.8232C44.0827 12.4392 43.5983 12.2472 42.9909 12.2472C42.3836 12.2472 41.8919 12.4392 41.516 12.8232C41.1544 13.193 40.9737 13.6766 40.9737 14.2739V19.5186C40.9737 19.9328 40.6379 20.2686 40.2237 20.2686H38.4484Z" fill="var(--fill-0, white)"/>
</g>
<path id="Rectangle 9447" d="M48.946 10.7992C48.6523 10.2969 49.0222 9.67387 49.6076 9.68478L51.7938 9.7255C52.0592 9.73045 52.3036 9.87279 52.4371 10.1003L57.797 19.231C58.09 19.7301 57.7267 20.3511 57.1443 20.3466L54.9512 20.3297C54.6822 20.3276 54.4337 20.1843 54.2988 19.9536L48.946 10.7992Z" fill="var(--fill-0, white)"/>
<path id="Vector 435" d="M60.5866 0L56.0765 0C55.9389 0 55.8124 0.0753167 55.7468 0.196242L51.793 7.48756C51.6629 7.72743 51.8245 8.0215 52.0967 8.04041L55.4598 8.27413C55.7349 8.29326 55.896 8.59288 55.7602 8.83292L47.177 24L61.3252 6.47724C61.5232 6.23198 61.3486 5.86667 61.0334 5.86667H58.1693C57.8722 5.86667 57.6931 5.53747 57.8545 5.28796L60.9015 0.578711C61.0629 0.329199 60.8838 0 60.5866 0Z" fill="var(--fill-0, #4166FB)"/>
</g>
</svg>
