<svg preserveAspectRatio="none" width="100%" height="100%" overflow="visible" style="display: block;" viewBox="0 0 18 18" fill="none" xmlns="http://www.w3.org/2000/svg">
<g id="hourglass_bottom">
<mask id="mask0_8008_2191" style="mask-type:alpha" maskUnits="userSpaceOnUse" x="0" y="0" width="18" height="18">
<rect id="Bounding box" width="18" height="18" fill="var(--fill-0, #D9D9D9)"/>
</mask>
<g mask="url(#mask0_8008_2191)">
<path id="hourglass_bottom_2" d="M11.1765 7.44C11.7736 6.83275 12.0722 6.10275 12.0722 5.25V3H5.92781V5.25C5.92781 6.10387 6.22638 6.83419 6.8235 7.44094C7.42063 8.04769 8.14612 8.35106 9 8.35106C9.85388 8.35106 10.5794 8.04737 11.1765 7.44ZM3.9375 16.125C3.77812 16.125 3.64456 16.0711 3.53681 15.9632C3.42894 15.8553 3.375 15.7217 3.375 15.5623C3.375 15.4028 3.42894 15.2692 3.53681 15.1616C3.64456 15.0539 3.77812 15 3.9375 15H4.803V12.75C4.803 11.9057 5.034 11.1373 5.496 10.4445C5.958 9.75163 6.57025 9.27012 7.33275 9C6.57025 8.725 5.958 8.24231 5.496 7.55194C5.034 6.86156 4.803 6.09425 4.803 5.25V3H3.9375C3.77812 3 3.64456 2.94606 3.53681 2.83819C3.42894 2.73031 3.375 2.59669 3.375 2.43731C3.375 2.27781 3.42894 2.14425 3.53681 2.03662C3.64456 1.92887 3.77812 1.875 3.9375 1.875H14.0625C14.2219 1.875 14.3554 1.92894 14.4632 2.03681C14.5711 2.14469 14.625 2.27831 14.625 2.43769C14.625 2.59719 14.5711 2.73075 14.4632 2.83837C14.3554 2.94612 14.2219 3 14.0625 3H13.197V5.25C13.197 6.09425 12.966 6.86156 12.504 7.55194C12.042 8.24231 11.4297 8.725 10.6672 9C11.4297 9.27012 12.042 9.75163 12.504 10.4445C12.966 11.1373 13.197 11.9057 13.197 12.75V15H14.0625C14.2219 15 14.3554 15.0539 14.4632 15.1618C14.5711 15.2697 14.625 15.4033 14.625 15.5627C14.625 15.7222 14.5711 15.8557 14.4632 15.9634C14.3554 16.0711 14.2219 16.125 14.0625 16.125H3.9375Z" fill="var(--fill-0, #0F172A)"/>
</g>
</g>
</svg>
