<svg preserveAspectRatio="none" width="100%" height="100%" overflow="visible" style="display: block;" viewBox="0 0 96 96" fill="none" xmlns="http://www.w3.org/2000/svg">
<g id="Group 2574">
<path id="Star 1" d="M34.7451 10.1913C42.5602 4.18248 53.4398 4.18248 61.2549 10.1913V10.1913C63.6387 12.0241 66.3766 13.3426 69.2957 14.0635V14.0635C78.8663 16.4272 85.6496 24.9332 85.8244 34.7898V34.7898C85.8777 37.7962 86.5539 40.7588 87.8103 43.4906V43.4906C91.9294 52.4469 89.5085 63.0537 81.9113 69.3358V69.3358C79.594 71.252 77.6993 73.6278 76.3469 76.3134V76.3134C71.9128 85.118 62.1106 89.8385 52.4623 87.8156V87.8156C49.5194 87.1986 46.4806 87.1986 43.5377 87.8156V87.8156C33.8894 89.8385 24.0872 85.118 19.6531 76.3134V76.3134C18.3007 73.6278 16.406 71.252 14.0887 69.3358V69.3358C6.49154 63.0537 4.07061 52.4469 8.18972 43.4906V43.4906C9.44612 40.7588 10.1223 37.7962 10.1756 34.7898V34.7898C10.3504 24.9332 17.1337 16.4272 26.7043 14.0635V14.0635C29.6234 13.3426 32.3613 12.0241 34.7451 10.1913V10.1913Z" fill="var(--fill-0, #A64CFC)"/>
<g id="document_search">
<mask id="mask0_8008_2305" style="mask-type:alpha" maskUnits="userSpaceOnUse" x="24" y="24" width="48" height="48">
<rect id="Bounding box" x="24" y="24" width="48" height="48" fill="var(--fill-0, #D9D9D9)"/>
</mask>
<g mask="url(#mask0_8008_2305)">
<path id="document_search_2" d="M35.4155 66.2C34.5152 66.2 33.7542 65.8892 33.1325 65.2675C32.5108 64.6458 32.2 63.8848 32.2 62.9845V33.0155C32.2 32.1152 32.5108 31.3542 33.1325 30.7325C33.7542 30.1108 34.5152 29.8 35.4155 29.8H49.554C49.9823 29.8 50.3907 29.877 50.779 30.031C51.1673 30.1847 51.5257 30.4257 51.854 30.754L58.046 36.946C58.3743 37.2743 58.6153 37.6327 58.769 38.021C58.923 38.4093 59 38.8177 59 39.246V44.454C59 44.8143 58.8763 45.1242 58.629 45.3835C58.3817 45.6432 58.0753 45.773 57.71 45.773C57.3443 45.773 57.0347 45.6485 56.781 45.3995C56.527 45.1502 56.4 44.8413 56.4 44.473V39.8H50.5995C50.1462 39.8 49.7663 39.6467 49.46 39.34C49.1533 39.0333 49 38.6533 49 38.2V32.4H35.4155C35.2615 32.4 35.1205 32.4642 34.9925 32.5925C34.8642 32.7205 34.8 32.8615 34.8 33.0155V62.9845C34.8 63.1385 34.8642 63.2795 34.9925 63.4075C35.1205 63.5358 35.2615 63.6 35.4155 63.6H46.527C46.8953 63.6 47.204 63.7237 47.453 63.971C47.7023 64.2183 47.827 64.5247 47.827 64.89C47.827 65.2557 47.7023 65.5653 47.453 65.819C47.204 66.073 46.8953 66.2 46.527 66.2H35.4155ZM61.221 61.2285C62.212 60.2425 62.7075 59.0355 62.7075 57.6075C62.7075 56.1795 62.2135 54.97 61.2255 53.979C60.2372 52.988 59.0273 52.4925 57.596 52.4925C56.4423 52.4925 55.3033 52.9225 54.179 53.7825C53.0547 54.6428 52.4925 55.9167 52.4925 57.604C52.4925 59.035 52.9855 60.2433 53.9715 61.229C54.9575 62.2147 56.1645 62.7075 57.5925 62.7075C59.0205 62.7075 60.23 62.2145 61.221 61.2285ZM67.0765 68.419C66.7332 68.419 66.423 68.2807 66.146 68.004L62.073 63.8615C61.432 64.3205 60.7342 64.6763 59.9795 64.929C59.2245 65.1813 58.4397 65.3075 57.625 65.3075C55.4673 65.3075 53.6392 64.5582 52.1405 63.0595C50.6418 61.5608 49.8925 59.741 49.8925 57.6C49.8925 55.459 50.6418 53.6392 52.1405 52.1405C53.6392 50.6418 55.459 49.8925 57.6 49.8925C59.741 49.8925 61.5608 50.6418 63.0595 52.1405C64.5582 53.6392 65.3075 55.459 65.3075 57.6C65.3075 58.4203 65.1813 59.2107 64.929 59.971C64.6763 60.7313 64.3205 61.432 63.8615 62.073L68.004 66.146C68.2807 66.422 68.419 66.7313 68.419 67.074C68.419 67.417 68.281 67.727 68.005 68.004C67.729 68.2807 67.4195 68.419 67.0765 68.419Z" fill="var(--fill-0, white)"/>
</g>
</g>
</g>
</svg>
