<svg preserveAspectRatio="none" width="100%" height="100%" overflow="visible" style="display: block;" viewBox="0 0 18 18" fill="none" xmlns="http://www.w3.org/2000/svg">
<g id="Group 2576">
<path id="Vector" d="M9 0C6.61305 0 4.32387 0.948212 2.63604 2.63604C0.948212 4.32387 0 6.61305 0 9C0 11.3869 0.948212 13.6761 2.63604 15.364C4.32387 17.0518 6.61305 18 9 18C11.3869 18 13.6761 17.0518 15.364 15.364C17.0518 13.6761 18 11.3869 18 9C18 6.61305 17.0518 4.32387 15.364 2.63604C13.6761 0.948212 11.3869 0 9 0Z" fill="var(--fill-0, #0F172A)"/>
<path id="Vector_2" d="M13.4775 4.95L11.7918 13.5567C11.7918 13.5567 11.7193 13.95 11.2315 13.95C10.9723 13.95 10.8387 13.8267 10.8387 13.8267L7.1874 10.7969L5.4009 9.8964L3.10815 9.28665C3.10815 9.28665 2.7 9.16875 2.7 8.83125C2.7 8.55 3.11985 8.4159 3.11985 8.4159L12.712 4.6053C12.712 4.6053 13.005 4.49955 13.2187 4.5C13.3501 4.5 13.5 4.55625 13.5 4.725C13.5 4.8375 13.4775 4.95 13.4775 4.95Z" fill="var(--fill-0, white)"/>
<path id="Vector_3" d="M8.55004 11.9278L7.00834 13.4461C7.00834 13.4461 6.94129 13.4978 6.85174 13.5001C6.82069 13.501 6.78739 13.496 6.75319 13.4807L7.18699 10.7965L8.55004 11.9278Z" fill="var(--fill-0, white)"/>
<path id="Vector_4" d="M11.6536 6.38815C11.5776 6.28915 11.4372 6.27115 11.3382 6.3463L5.4 9.89995C5.4 9.89995 6.3477 12.5514 6.49215 13.0104C6.63705 13.4698 6.75315 13.4806 6.75315 13.4806L7.18695 10.7964L11.6113 6.70315C11.7103 6.628 11.7288 6.48715 11.6536 6.38815Z" fill="var(--fill-0, #E2E8F0)"/>
</g>
</svg>
