<svg preserveAspectRatio="none" width="100%" height="100%" overflow="visible" style="display: block;" viewBox="0 0 18 18" fill="none" xmlns="http://www.w3.org/2000/svg">
<g id="Group 2575">
<path id="Vector" d="M9 0C6.61305 0 4.32387 0.948212 2.63604 2.63604C0.948212 4.32387 0 6.61305 0 9C0 11.3869 0.948212 13.6761 2.63604 15.364C4.32387 17.0518 6.61305 18 9 18C11.3869 18 13.6761 17.0518 15.364 15.364C17.0518 13.6761 18 11.3869 18 9C18 6.61305 17.0518 4.32387 15.364 2.63604C13.6761 0.948212 11.3869 0 9 0Z" fill="var(--fill-0, #0F172A)"/>
<path id="Vector_2" fill-rule="evenodd" clip-rule="evenodd" d="M14.1286 14.0026H10.9101L3.91461 4.0026H7.13311L14.1286 14.0026ZM11.2936 13.1546H12.5751L6.74961 4.8506H5.46811L11.2936 13.1546Z" fill="var(--fill-0, white)"/>
<path id="Vector_3" fill-rule="evenodd" clip-rule="evenodd" d="M4.933 13.9996L8.5345 9.82763L8.0635 9.20312L3.9115 13.9996H4.933Z" fill="var(--fill-0, white)"/>
<path id="Vector_4" fill-rule="evenodd" clip-rule="evenodd" d="M9.22498 7.8605L9.67747 8.505L13.568 4H12.568L9.22498 7.8605Z" fill="var(--fill-0, white)"/>
</g>
</svg>
